<svg width="500" height="160" viewBox="0 0 500 160" fill="none" xmlns="http://www.w3.org/2000/svg">
<g clip-path="url(#clip0_582_575)">
<path d="M7.35512 15.6042C29.2722 15.5489 52.4008 15.1983 74.2425 15.5729C89.4778 29.0244 103.791 45.9352 118.726 59.8731C127.784 68.3266 127.841 83.0608 119.136 91.7255C109.745 101.301 100.138 110.719 90.6541 120.211L75.4605 135.415C73.1462 137.729 69.5454 141.55 67.1232 143.597L0.295044 143.547L41.7395 102.164C50.3948 93.5205 58.7344 85.5891 66.6698 76.2782C62.7538 70.4687 57.8038 65.9655 52.8564 61.0165L36.5373 44.7028C27.819 35.9924 16.1013 23.4893 7.35512 15.6042Z" fill="#0E50ED"/>
<path d="M66.6698 76.2786C79.2443 95.2997 77.6649 113.504 70.1063 133.734C69.1087 136.404 67.6411 140.948 67.1232 143.598L0.295044 143.548L41.7395 102.164C50.3948 93.5209 58.7344 85.5895 66.6698 76.2786Z" fill="#002F9F"/>
<path d="M197.767 103.489L213.279 52.4671H236.61L211.228 124H184.179L158.796 52.4671H182.256L197.767 103.489ZM313.268 87.0798C313.268 89.1309 313.14 91.2675 312.884 93.4895H263.272C263.614 97.9336 265.024 101.352 267.502 103.745C270.066 106.053 273.186 107.206 276.861 107.206C282.33 107.206 286.134 104.899 288.27 100.284H311.602C310.405 104.984 308.226 109.215 305.064 112.975C301.987 116.736 298.098 119.684 293.398 121.821C288.697 123.957 283.441 125.026 277.63 125.026C270.622 125.026 264.383 123.53 258.913 120.539C253.444 117.548 249.171 113.274 246.094 107.719C243.017 102.164 241.479 95.6689 241.479 88.2335C241.479 80.7982 242.974 74.303 245.966 68.7479C249.042 63.1927 253.316 58.9196 258.785 55.9284C264.255 52.9371 270.536 51.4415 277.63 51.4415C284.552 51.4415 290.706 52.8944 296.09 55.8002C301.474 58.7059 305.662 62.8509 308.653 68.2351C311.73 73.6193 313.268 79.9009 313.268 87.0798ZM290.834 81.311C290.834 77.5506 289.552 74.5594 286.988 72.3373C284.424 70.1153 281.219 69.0043 277.374 69.0043C273.699 69.0043 270.579 70.0726 268.015 72.2091C265.537 74.3457 263.998 77.3797 263.4 81.311H290.834ZM346.754 29.1356V124H324.833V29.1356H346.754ZM383.152 105.924H414.175V124H358.666V106.565L388.408 70.5426H358.923V52.4671H413.534V69.9016L383.152 105.924ZM458.799 125.026C451.791 125.026 445.466 123.53 439.826 120.539C434.271 117.548 429.869 113.274 426.622 107.719C423.46 102.164 421.879 95.6689 421.879 88.2335C421.879 80.8837 423.502 74.4312 426.75 68.8761C429.998 63.2355 434.442 58.9196 440.082 55.9284C445.723 52.9371 452.047 51.4415 459.055 51.4415C466.063 51.4415 472.387 52.9371 478.028 55.9284C483.669 58.9196 488.113 63.2355 491.36 68.8761C494.608 74.4312 496.232 80.8837 496.232 88.2335C496.232 95.5834 494.565 102.079 491.232 107.719C487.985 113.274 483.498 117.548 477.772 120.539C472.131 123.53 465.807 125.026 458.799 125.026ZM458.799 106.053C462.986 106.053 466.533 104.514 469.439 101.438C472.43 98.361 473.926 93.9596 473.926 88.2335C473.926 82.5075 472.473 78.1061 469.567 75.0294C466.747 71.9528 463.243 70.4144 459.055 70.4144C454.782 70.4144 451.235 71.9528 448.415 75.0294C445.595 78.0207 444.184 82.422 444.184 88.2335C444.184 93.9596 445.552 98.361 448.287 101.438C451.107 104.514 454.611 106.053 458.799 106.053Z" fill="#0E50ED"/>
</g>
<defs>
<clipPath id="clip0_582_575">
<rect width="500" height="160" fill="white"/>
</clipPath>
</defs>
</svg>
